{"title":"Arnhem 1944 [ One Bridge To Far ].mp4.dvd.rip.uled by Catrix02","uid":9049101,"size":519570588,"categoryP":"video","categoryS":"movies","magnet":"?xt=urn:btih:9b937c8d8a39092f243b90fd802e87f3dbbad1ea&amp;dn=Arnhem+1944+%5B+One+Bridge+To+Far+%5D.mp4.dvd.rip.uled+by+Catrix02&amp;tr=udp%3A%2F%2Ftracker.openbittorrent.com%3A80&amp;tr=udp%3A%2F%2Fopen.demonii.com%3A1337&amp;tr=udp%3A%2F%2Ftracker.coppersurfer.tk%3A6969&amp;tr=udp%3A%2F%2Fexodus.desync.com%3A6969","seeders":1,"leechers":0,"uploader":"CATRIX02","files":-1,"time":1381831823,"description":"Complete name                  :Arnhem 1944 [ One Bridge To Far ].mp4.dvd.rip.uled by Catrix02\nFormat                                   : MPEG-4\nFormat profile                           : Base Media\nCodec ID                                 : isom\nFile size                                : 494 MiB\nDuration                                 : 51mn 51s\nOverall bit rate                         : 1 331 Kbps\nMovie name                               : Arnhem_1944_One_Bridge_To_Far\nGenre                                    : War_Documentary\nWriting application                      : Lavf54.46.100\n &lt;a href=&quot;\nhttp://imagecurl.org/images/06966909410819421562.jpg&quot; rel=&quot;nofollow&quot; target=&quot;_NEW&quot;&gt;\nhttp://imagecurl.org/images/06966909410819421562.jpg&lt;/a&gt;  COVER\n\nIMDB.                                    : NONE\n &lt;a href=&quot;\nhttp://imagecurl.org/images/93464968780715653824.jpg&quot; rel=&quot;nofollow&quot; target=&quot;_NEW&quot;&gt;\nhttp://imagecurl.org/images/93464968780715653824.jpg&lt;/a&gt; &lt;a href=&quot;\nhttp://imagecurl.org/images/79715232917450405032.jpg&quot; rel=&quot;nofollow&quot; target=&quot;_NEW&quot;&gt;\nhttp://imagecurl.org/images/79715232917450405032.jpg&lt;/a&gt; &lt;a href=&quot;\nhttp://imagecurl.org/images/73409622940281986506.jpg&quot; rel=&quot;nofollow&quot; target=&quot;_NEW&quot;&gt;\nhttp://imagecurl.org/images/73409622940281986506.jpg&lt;/a&gt; &lt;a href=&quot;\nhttp://imagecurl.org/images/62911602251723914368.jpg&quot; rel=&quot;nofollow&quot; target=&quot;_NEW&quot;&gt;\nhttp://imagecurl.org/images/62911602251723914368.jpg&lt;/a&gt; &lt;a href=&quot;\nhttp://imagecurl.org/images/89671572226178498607.jpg&quot; rel=&quot;nofollow&quot; target=&quot;_NEW&quot;&gt;\nhttp://imagecurl.org/images/89671572226178498607.jpg&lt;/a&gt;\n\nID                                       : 1\nFormat                                   : MPEG-4 Visual\nFormat settings, BVOP                    : No\nFormat settings, QPel                    : No\nFormat settings, GMC                     : No warppoints\nFormat settings, Matrix                  : Default (H.263)\nCodec ID                                 : 20\nDuration                                 : 51mn 51s\nBit rate mode                            : Constant\nBit rate                                 : 1 198 Kbps\nWidth                                    : 720 pixels\nHeight                                   : 404 pixels\nDisplay aspect ratio                     : 16:9\nFrame rate mode                          : Constant\nFrame rate                               : 23.976 fps\nColor space                              : YUV\nChroma subsampling                       : 4:2:0\nBit depth                                : 8 bits\nScan type                                : Progressive\nCompression mode                         : Lossy\nBits/(Pixel*Frame)                       : 0.172\nStream size                              : 444 MiB (90%)\nWriting library                          : Lavc54.79.100\n\nID                                       : 2\nFormat                                   : AAC\nFormat/Info                              : Advanced Audio Codec\nFormat profile                           : LC\nCodec ID                                 : 40\nDuration                                 : 51mn 51s\nBit rate mode                            : Constant\nBit rate                                 : 128 Kbps\nChannel(s)                               : 2 channels\nChannel positions                        : Front: L R\nSampling rate                            : 44.1 KHz\nCompression mode                         : Lossy\nStream size                              : 47.5 MiB (10%)","torrent":{"xt":"urn:btih:9b937c8d8a39092f243b90fd802e87f3dbbad1ea","amp;dn":"Arnhem+1944+%5B+One+Bridge+To+Far+%5D.mp4.dvd.rip.uled+by+Catrix02","amp;tr":["udp%3A%2F%2Ftracker.openbittorrent.com%3A80","udp%3A%2F%2Fopen.demonii.com%3A1337","udp%3A%2F%2Ftracker.coppersurfer.tk%3A6969","udp%3A%2F%2Fexodus.desync.com%3A6969"],"infoHash":"9b937c8d8a39092f243b90fd802e87f3dbbad1ea","infoHashBuffer":{"type":"Buffer","data":[155,147,124,141,138,57,9,47,36,59,144,253,128,46,135,243,219,186,209,234]},"announce":[],"urlList":[]}}